<svg xmlns="http://www.w3.org/2000/svg" viewBox="0 0 66 66" id="turtle"><path d="M55.2 18.1c2.3-2.3 4.3-7.1 2.1-9.3-1-1-2.7-1.2-4.8-.6-1.7.5-3.4 1.5-4.5 2.6v.1c1.5.8 2.9 1.9 4.1 3.1 1.2 1.2 2.2 2.6 3.1 4.1zM20.4 6.9c3.5.1 9 .8 10.2 2.1v.1c3-.8 6-1 8.4-.8 0-1.5-.1-2.7-.4-3.4-.4-.9-1.7-2.5-2.7-3-3.8-1.8-11.8-.7-16.2 3.4-.3.3-.4.7-.3 1.1.2.3.6.5 1 .5zm-11.5 26c-3.3.4-7.8 1.5-7.9 4.2-.1 2.5 3.8 4.3 8.3 5.2-.8-3.2-.8-6.7-.4-9.4zm14.8 23.8c.9 4.4 2.6 8.3 5.1 8.3h.1c2.7-.1 3.8-4.6 4.2-7.9-3.1.4-6.3.4-9.4-.4zm-3.2-26.3-8.3-2.2c-2.9 7.6-2 15.7 2.9 21.2l8.2-8.2-2.8-10.8zm8.4-9.8-2.2-8c-6.1 2.8-11 8-13.7 13.7l8 2.2 7.9-7.9zm-4.1 22-8.2 8.2c5.7 5.1 13.9 5.7 21.2 2.9l-2.2-8.3-10.8-2.8zM22.5 29.9l2.9 10.7 10.7 2.9 7.9-7.9-2.9-10.7L30.4 22zM28.7 11.8l2.2 8.3L41.7 23l8.2-8.2c-5.5-5-13.7-5.9-21.2-3zm8.8 33.1 2.1 8c6.1-2.8 11-7.9 13.8-13.7l-8-2.2-7.9 7.9zm5.6-20.5L46 35.2l8.3 2.2c2.8-7.2 2.2-15.5-2.9-21.2l-8.3 8.2zm21.1 5.7c-.5-1.1-2.1-2.4-3-2.7-.7-.3-1.8-.4-3.3-.4.2 2.7-.1 5.7-.8 8.4h.1c1.3 1.1 2 6.6 2 10.2 0 .4.3.8.7.9.1 0 .2.1.3.1.3 0 .5-.1.7-.3 4-4.4 5.1-12.4 3.3-16.2z"></path></svg>